# Blender v2.83.5 OBJ File: ''
# www.blender.org
mtllib cube or something.mtl
o Cube_Cube.001
v -16.546289 -17.649244 16.546289
v -16.546288 -16.546288 17.649244
v -17.649244 -16.546288 16.546288
v -16.546288 16.546288 17.649244
v -16.546289 17.649244 16.546289
v -17.649244 16.546288 16.546288
v -16.546289 -17.649244 -16.546289
v -17.649244 -16.546288 -16.546288
v -16.546288 -16.546288 -17.649244
v -16.546289 17.649244 -16.546289
v -16.546288 16.546288 -17.649244
v -17.649244 16.546288 -16.546288
v 16.546289 -17.649244 16.546289
v 17.649244 -16.546288 16.546288
v 16.546288 -16.546288 17.649244
v 16.546289 17.649244 16.546289
v 16.546288 16.546288 17.649244
v 17.649244 16.546288 16.546288
v 16.546289 -17.649244 -16.546289
v 16.546288 -16.546288 -17.649244
v 17.649244 -16.546288 -16.546288
v 16.546289 17.649244 -16.546289
v 17.649244 16.546288 -16.546288
v 16.546288 16.546288 -17.649244
v -14.037145 -18.647635 14.037145
v -15.788864 -18.134567 15.788864
v -14.037145 -14.037145 18.647635
v -15.788864 -15.788864 18.134567
v -18.647635 -14.037145 14.037145
v -18.134567 -15.788864 15.788864
v -14.037145 14.037145 18.647635
v -15.788864 15.788864 18.134567
v -14.037145 18.647635 14.037145
v -15.788864 18.134567 15.788864
v -18.647635 14.037145 14.037145
v -18.134567 15.788864 15.788864
v -14.037145 -18.647635 -14.037145
v -15.788864 -18.134567 -15.788864
v -18.647635 -14.037145 -14.037145
v -18.134567 -15.788864 -15.788864
v -14.037145 -14.037145 -18.647635
v -15.788864 -15.788864 -18.134567
v -14.037145 18.647635 -14.037145
v -15.788864 18.134567 -15.788864
v -14.037145 14.037145 -18.647635
v -15.788864 15.788864 -18.134567
v -18.647635 14.037145 -14.037145
v -18.134567 15.788864 -15.788864
v 14.037145 -18.647635 14.037145
v 15.788864 -18.134567 15.788864
v 18.647635 -14.037145 14.037145
v 18.134567 -15.788864 15.788864
v 14.037145 -14.037145 18.647635
v 15.788864 -15.788864 18.134567
v 14.037145 18.647635 14.037145
v 15.788864 18.134567 15.788864
v 14.037145 14.037145 18.647635
v 15.788864 15.788864 18.134567
v 18.647635 14.037145 14.037145
v 18.134567 15.788864 15.788864
v 14.037145 -18.647635 -14.037145
v 15.788864 -18.134567 -15.788864
v 14.037145 -14.037145 -18.647635
v 15.788864 -15.788864 -18.134567
v 18.647635 -14.037145 -14.037145
v 18.134567 -15.788864 -15.788864
v 14.037145 18.647635 -14.037145
v 15.788864 18.134567 -15.788864
v 18.647635 14.037145 -14.037145
v 18.134567 15.788864 -15.788864
v 14.037145 14.037145 -18.647635
v 15.788864 15.788864 -18.134567
vt 0.604117 0.979117
vt 0.604117 0.770883
vt 0.607568 0.767432
vt 0.607568 0.982568
vt 0.632393 0.514086
vt 0.632393 0.735914
vt 0.617607 0.735914
vt 0.617607 0.514086
vt 0.360914 0.512413
vt 0.139086 0.512413
vt 0.139086 0.505019
vt 0.360914 0.505019
vt 0.610914 0.985914
vt 0.618308 0.985914
vt 0.610914 0.993308
vt 0.860914 0.514086
vt 0.860914 0.506693
vt 0.868308 0.514086
vt 0.395883 0.770883
vt 0.395883 0.979117
vt 0.392432 0.982568
vt 0.392432 0.767432
vt 0.639086 0.737587
vt 0.860914 0.737587
vt 0.860914 0.744981
vt 0.639086 0.744981
vt 0.610914 0.257393
vt 0.389086 0.257393
vt 0.389086 0.242607
vt 0.610914 0.242607
vt 0.860914 0.512413
vt 0.639086 0.512413
vt 0.639086 0.505019
vt 0.860914 0.505019
vt 0.367607 0.735914
vt 0.367607 0.514086
vt 0.382393 0.514086
vt 0.382393 0.735914
vt 0.360914 0.514086
vt 0.360914 0.506693
vt 0.368308 0.514086
vt 0.610914 0.507393
vt 0.389086 0.507393
vt 0.389086 0.492607
vt 0.610914 0.492607
vt 0.139086 0.735914
vt 0.139086 0.743308
vt 0.131692 0.735914
vt 0.604117 0.020883
vt 0.395883 0.020883
vt 0.392432 0.017432
vt 0.607568 0.017432
vt 0.604117 0.229117
vt 0.607568 0.232568
vt 0.855837 0.518303
vt 0.644163 0.518303
vt 0.139086 0.514086
vt 0.131692 0.514086
vt 0.139086 0.506692
vt 0.360914 0.735914
vt 0.368308 0.735914
vt 0.360914 0.743308
vt 0.639086 0.514086
vt 0.631693 0.514086
vt 0.639086 0.506692
vt 0.610914 0.757393
vt 0.389086 0.757393
vt 0.389086 0.742607
vt 0.610914 0.742607
vt 0.639086 0.735914
vt 0.639086 0.743308
vt 0.631693 0.735914
vt 0.605837 0.765724
vt 0.394163 0.765724
vt 0.389086 0.987587
vt 0.610914 0.987587
vt 0.610914 0.994981
vt 0.389086 0.994981
vt 0.862587 0.735914
vt 0.862587 0.514086
vt 0.869981 0.514086
vt 0.869981 0.735914
vt 0.139086 0.737587
vt 0.360914 0.737587
vt 0.360914 0.744981
vt 0.139086 0.744981
vt 0.144163 0.731697
vt 0.355837 0.731697
vt 0.405905 0.030905
vt 0.594095 0.030905
vt 0.594095 0.219095
vt 0.405905 0.219095
vt 0.405905 0.780905
vt 0.594095 0.780905
vt 0.594095 0.969095
vt 0.405905 0.969095
vt 0.395883 0.229117
vt 0.392432 0.232568
vt 0.655905 0.530905
vt 0.844095 0.530905
vt 0.844095 0.719095
vt 0.655905 0.719095
vt 0.355837 0.518303
vt 0.144163 0.518303
vt 0.395883 0.270883
vt 0.395883 0.479117
vt 0.392432 0.482568
vt 0.392432 0.267432
vt 0.605837 0.265724
vt 0.394163 0.265724
vt 0.394163 0.234276
vt 0.605837 0.234276
vt 0.405905 0.280905
vt 0.594095 0.280905
vt 0.594095 0.469095
vt 0.405905 0.469095
vt 0.604117 0.479117
vt 0.604117 0.270883
vt 0.607568 0.267432
vt 0.607568 0.482568
vt 0.359276 0.730837
vt 0.359276 0.519163
vt 0.605837 0.515724
vt 0.394163 0.515724
vt 0.390724 0.519163
vt 0.390724 0.730837
vt 0.394163 0.734276
vt 0.605837 0.734276
vt 0.609276 0.730837
vt 0.609276 0.519163
vt 0.394163 0.484276
vt 0.605837 0.484276
vt 0.640724 0.519163
vt 0.640724 0.730837
vt 0.405905 0.530905
vt 0.594095 0.530905
vt 0.594095 0.719095
vt 0.405905 0.719095
vt 0.155905 0.530905
vt 0.344095 0.530905
vt 0.344095 0.719095
vt 0.155905 0.719095
vt 0.394163 0.981697
vt 0.605837 0.981697
vt 0.856697 0.730837
vt 0.856697 0.519163
vt 0.644163 0.731697
vt 0.855837 0.731697
vt 0.137413 0.514086
vt 0.137413 0.735914
vt 0.130019 0.735914
vt 0.130019 0.514086
vt 0.143303 0.730837
vt 0.143303 0.519163
vn 0.0000 0.5395 0.8420
vn 0.7071 0.7071 0.0000
vn 0.0000 -0.7071 -0.7071
vn -0.5774 0.5773 0.5774
vn -0.5774 0.5773 -0.5774
vn 0.0000 -0.5395 0.8420
vn 0.0000 0.7071 0.7071
vn -0.7071 0.0000 -0.7071
vn 0.0000 0.7071 -0.7071
vn 0.7071 -0.7071 0.0000
vn 0.5774 -0.5773 -0.5774
vn 0.7071 0.0000 -0.7071
vn -0.5774 -0.5773 0.5774
vn -0.8420 0.0000 0.5395
vn -0.8420 0.5395 0.0000
vn 0.0000 0.8420 -0.5395
vn -0.5774 -0.5773 -0.5774
vn 0.5774 -0.5773 0.5774
vn 0.5774 0.5773 -0.5774
vn 0.7071 0.0000 0.7071
vn 0.5774 0.5773 0.5774
vn 0.5395 0.0000 0.8420
vn -0.7071 0.0000 0.7071
vn -0.7071 0.7071 0.0000
vn 0.0000 -0.7071 0.7071
vn 0.0000 -0.8420 0.5395
vn -1.0000 0.0000 0.0000
vn 0.0000 0.0000 1.0000
vn -0.8420 -0.5395 0.0000
vn 0.0000 1.0000 0.0000
vn 0.0000 -0.8420 -0.5395
vn 0.0000 -0.5395 -0.8420
vn -0.5395 0.0000 -0.8420
vn -0.8420 0.0000 -0.5395
vn 0.0000 0.0000 -1.0000
vn 0.0000 0.5395 -0.8420
vn 0.5395 -0.8420 0.0000
vn 0.8420 0.0000 -0.5395
vn 0.8420 -0.5395 0.0000
vn 0.8420 0.0000 0.5395
vn 0.8420 0.5395 0.0000
vn 0.5395 0.0000 -0.8420
vn 0.5395 0.8420 0.0000
vn 1.0000 0.0000 0.0000
vn 0.0000 -1.0000 0.0000
vn -0.5395 0.0000 0.8420
vn -0.5395 0.8420 0.0000
vn 0.0000 0.8420 0.5395
vn -0.7071 -0.7071 0.0000
vn -0.2811 -0.9597 0.0000
vn -0.9597 -0.2811 0.0000
vn -0.2811 0.0000 0.9597
vn -0.9597 0.0000 0.2811
vn -0.2811 0.9597 0.0000
vn -0.9597 0.2811 0.0000
vn -0.2811 0.0000 -0.9597
vn -0.9597 0.0000 -0.2811
vn 0.0000 -0.9597 -0.2811
vn 0.0000 -0.2811 -0.9597
vn 0.0000 0.9597 -0.2811
vn 0.0000 0.2811 -0.9597
vn 0.9597 0.0000 -0.2811
vn 0.2811 0.0000 -0.9597
vn 0.2811 -0.9597 0.0000
vn 0.9597 -0.2811 0.0000
vn 0.2811 0.9597 0.0000
vn 0.9597 0.2811 0.0000
vn 0.2811 0.0000 0.9597
vn 0.9597 0.0000 0.2811
vn 0.0000 -0.9597 0.2811
vn 0.0000 -0.2811 0.9597
vn 0.0000 0.9597 0.2811
vn 0.0000 0.2811 0.9597
vn -0.5395 -0.8420 0.0000
usemtl None
s off
f 32/1/1 58/2/1 17/3/1 4/4/1
f 22/5/2 16/6/2 18/7/2 23/8/2
f 19/9/3 7/10/3 9/11/3 20/12/3
f 4/13/4 5/14/4 6/15/4
f 10/16/5 11/17/5 12/18/5
f 54/19/6 28/20/6 2/21/6 15/22/6
f 16/23/7 5/24/7 4/25/7 17/26/7
f 11/27/8 9/28/8 8/29/8 12/30/8
f 10/31/9 22/32/9 24/33/9 11/34/9
f 13/35/10 19/36/10 21/37/10 14/38/10
f 19/39/11 20/40/11 21/41/11
f 23/42/12 21/43/12 20/44/12 24/45/12
f 1/46/13 2/47/13 3/48/13
f 36/49/14 30/50/14 3/51/14 6/52/14
f 48/53/15 36/49/15 6/52/15 12/54/15
f 44/55/16 68/56/16 22/32/16 10/31/16
f 7/57/17 8/58/17 9/59/17
f 13/60/18 14/61/18 15/62/18
f 22/63/19 23/64/19 24/65/19
f 17/66/20 15/67/20 14/68/20 18/69/20
f 16/70/21 17/71/21 18/72/21
f 58/73/22 54/74/22 15/67/22 17/66/22
f 2/75/23 4/76/23 6/77/23 3/78/23
f 5/79/24 10/80/24 12/81/24 6/82/24
f 1/83/25 13/84/25 15/85/25 2/86/25
f 26/87/26 50/88/26 13/84/26 1/83/26
f 29/89/27 35/90/27 47/91/27 39/92/27
f 53/93/28 57/94/28 31/95/28 27/96/28
f 30/50/29 40/97/29 8/98/29 3/51/29
f 67/99/30 43/100/30 33/101/30 55/102/30
f 62/103/31 38/104/31 7/10/31 19/9/31
f 42/105/32 64/106/32 20/107/32 9/108/32
f 46/109/33 42/110/33 9/28/33 11/27/33
f 40/111/34 48/112/34 12/30/34 8/29/34
f 41/113/35 45/114/35 71/115/35 63/116/35
f 72/117/36 46/118/36 11/119/36 24/120/36
f 50/121/37 62/122/37 19/36/37 13/35/37
f 70/123/38 66/124/38 21/43/38 23/42/38
f 66/125/39 52/126/39 14/38/39 21/37/39
f 52/127/40 60/128/40 18/69/40 14/68/40
f 60/129/41 70/130/41 23/8/41 18/7/41
f 64/131/42 72/132/42 24/45/42 20/44/42
f 68/133/43 56/134/43 16/6/43 22/5/43
f 65/135/44 69/136/44 59/137/44 51/138/44
f 37/139/45 61/140/45 49/141/45 25/142/45
f 28/143/46 32/144/46 4/76/46 2/75/46
f 34/145/47 44/146/47 10/80/47 5/79/47
f 56/147/48 34/148/48 5/24/48 16/23/48
f 7/149/49 1/150/49 3/151/49 8/152/49
f 37/139/50 25/142/50 26/153/50 38/154/50
f 29/89/51 39/92/51 40/97/51 30/50/51
f 27/96/52 31/95/52 32/144/52 28/143/52
f 35/90/53 29/89/53 30/50/53 36/49/53
f 33/101/54 43/100/54 44/146/54 34/145/54
f 47/91/55 35/90/55 36/49/55 48/53/55
f 45/114/56 41/113/56 42/110/56 46/109/56
f 39/92/57 47/91/57 48/112/57 40/111/57
f 61/140/58 37/139/58 38/104/58 62/103/58
f 41/113/59 63/116/59 64/106/59 42/105/59
f 43/100/60 67/99/60 68/56/60 44/55/60
f 71/115/61 45/114/61 46/118/61 72/117/61
f 69/136/62 65/135/62 66/124/62 70/123/62
f 63/116/63 71/115/63 72/132/63 64/131/63
f 49/141/64 61/140/64 62/122/64 50/121/64
f 65/135/65 51/138/65 52/126/65 66/125/65
f 67/99/66 55/102/66 56/134/66 68/133/66
f 59/137/67 69/136/67 70/130/67 60/129/67
f 57/94/68 53/93/68 54/74/68 58/73/68
f 51/138/69 59/137/69 60/128/69 52/127/69
f 25/142/70 49/141/70 50/88/70 26/87/70
f 53/93/71 27/96/71 28/20/71 54/19/71
f 55/102/72 33/101/72 34/148/72 56/147/72
f 31/95/73 57/94/73 58/2/73 32/1/73
f 38/154/74 26/153/74 1/150/74 7/149/74
