# Blender v2.83.5 OBJ File: ''
# www.blender.org
mtllib DR_star_platform.mtl
o obj_0
v 1.262980 0.198460 -1.262980
v -1.262980 0.198460 1.262980
v 1.262980 0.198460 1.262980
v 3.572283 0.198460 0.000000
v 0.000000 -1.587681 -0.000000
v -1.262980 0.198460 -1.262980
v 0.000000 0.198461 -3.572283
v 0.000000 0.198460 3.572283
v -3.572283 0.198460 0.000000
vn 0.0000 1.0000 0.0000
vn 0.3462 -0.6924 0.6330
vn 0.6330 -0.6924 0.3462
vn 0.6330 -0.6924 -0.3462
vn 0.3462 -0.6924 -0.6330
vn -0.6330 -0.6924 0.3462
vn -0.3462 -0.6924 0.6330
vn -0.3462 -0.6924 -0.6330
vn -0.6330 -0.6924 -0.3462
usemtl color_15708628
s off
f 1//1 2//1 3//1
f 4//1 1//1 3//1
f 4//2 3//2 5//2
f 6//1 1//1 7//1
f 2//1 1//1 6//1
f 8//1 3//1 2//1
f 6//1 9//1 2//1
f 3//3 8//3 5//3
f 5//4 7//4 1//4
f 5//5 1//5 4//5
f 5//6 8//6 2//6
f 5//7 2//7 9//7
f 5//8 9//8 6//8
f 7//9 5//9 6//9
